<svg version="1.1" viewBox="0.0 0.0 562.3175853018373 547.8267716535433" fill="none" stroke="none" stroke-linecap="square" stroke-miterlimit="10" xmlns:xlink="http://www.w3.org/1999/xlink" xmlns="http://www.w3.org/2000/svg"><clipPath id="p.0"><path d="m0 0l562.31757 0l0 547.8268l-562.31757 0l0 -547.8268z" clip-rule="nonzero"/></clipPath><g clip-path="url(#p.0)"><path fill="#000000" fill-opacity="0.0" d="m0 0l562.31757 0l0 547.8268l-562.31757 0z" fill-rule="evenodd"/><path fill="#000000" fill-opacity="0.0" d="m524.0407 43.80315l0 230.11024l-242.88193 230.11023l-242.88188 -230.11023l0 -230.11024l242.88188 230.11024z" fill-rule="evenodd"/><path stroke="#000000" stroke-width="24.0" stroke-linejoin="round" stroke-linecap="butt" d="m524.0407 43.80315l0 230.11024l-242.88193 230.11023l-242.88188 -230.11023l0 -230.11024l242.88188 230.11024z" fill-rule="evenodd"/><path fill="#000000" fill-opacity="0.0" d="m451.61285 117.20473l0 156.91338l-169.07086 156.91339l-169.07086 -156.91339l0 -156.91338l169.07086 156.91338z" fill-rule="evenodd"/><path stroke="#000000" stroke-width="24.0" stroke-linejoin="round" stroke-linecap="butt" d="m451.61285 117.20473l0 156.91338l-169.07086 156.91339l-169.07086 -156.91339l0 -156.91338l169.07086 156.91338z" fill-rule="evenodd"/><path fill="#000000" d="m328.72833 284.6273l0 42.06299l-47.007874 42.06302l-47.00786 -42.06302l0 -42.06299l47.00786 42.06299z" fill-rule="evenodd"/><path stroke="#000000" stroke-width="8.0" stroke-linejoin="round" stroke-linecap="butt" d="m328.72833 284.6273l0 42.06299l-47.007874 42.06302l-47.00786 -42.06302l0 -42.06299l47.00786 42.06299z" fill-rule="evenodd"/><path fill="#000000" fill-opacity="0.0" d="m113.47113 263.60367l0 78.36221" fill-rule="evenodd"/><path stroke="#000000" stroke-width="24.0" stroke-linejoin="round" stroke-linecap="butt" d="m113.47113 263.60367l0 78.36221" fill-rule="evenodd"/><path fill="#000000" fill-opacity="0.0" d="m451.61285 263.60367l0 78.36221" fill-rule="evenodd"/><path stroke="#000000" stroke-width="24.0" stroke-linejoin="round" stroke-linecap="butt" d="m451.61285 263.60367l0 78.36221" fill-rule="evenodd"/><path fill="#000000" d="m111.82995 331.93964l-61.85012 -54.33606l-9.834923 -217.91591l61.85012 54.33607z" fill-rule="evenodd"/><path stroke="#000000" stroke-width="1.0" stroke-linejoin="round" stroke-linecap="butt" d="m111.82995 331.93964l-61.85012 -54.33606l-9.834923 -217.91591l61.85012 54.33607z" fill-rule="evenodd"/><path fill="#000000" d="m446.47504 331.19946l66.32532 -56.60092l12.729797 -214.39119l-66.32535 56.60095z" fill-rule="evenodd"/><path stroke="#000000" stroke-width="1.0" stroke-linejoin="round" stroke-linecap="butt" d="m446.47504 331.19946l66.32532 -56.60092l12.729797 -214.39119l-66.32535 56.60095z" fill-rule="evenodd"/></g></svg>